{"glyphs":{":":{"x_min":0,"x_max":278,"ha":278,"o":"m 81 131 l 197 131 l 197 0 l 81 0 z m 81 513 l 197 513 l 197 382 l 81 382 z"},"$":{"x_min":0,"x_max":510,"ha":510,"o":"m 269 294 l 269 85 q 307 92 326 118 q 345 144 345 189 q 345 227 327 252 q 308 277 269 294 z m 229 607 q 193 601 174 579 q 155 557 155 522 q 155 490 172 469 q 188 448 229 428 z m 229 778 l 274 778 l 274 694 q 310 692 345 685 q 381 677 418 663 l 409 568 q 376 587 343 597 q 309 607 274 609 l 274 411 q 372 372 413 322 q 454 272 454 194 q 454 114 404 62 q 354 9 269 0 l 269 -93 l 224 -93 l 224 -2 q 182 -2 140 6 q 99 14 58 29 l 67 128 q 100 107 140 95 q 181 83 224 82 l 224 313 q 132 348 89 395 q 47 441 47 509 q 47 586 96 637 q 146 687 229 692 z"},"?":{"x_min":0,"x_max":425,"ha":425,"o":"m 130 124 l 245 124 l 245 0 l 130 0 z m 242 200 l 138 200 q 138 206 137 211 q 137 216 137 222 q 137 250 144 276 q 151 302 165 327 q 174 343 196 373 q 250 450 250 500 q 250 547 221 576 q 193 605 146 605 q 119 605 91 597 q 63 589 37 573 l 30 675 q 67 689 102 697 q 138 704 173 704 q 263 704 318 654 q 373 604 373 523 q 373 450 305 352 q 296 338 291 331 q 264 290 253 261 q 243 232 242 200 z"},"<":{"x_min":0,"x_max":833,"ha":833,"o":"m 704 574 l 704 484 l 248 298 l 704 112 l 704 23 l 129 259 l 129 337 z"},"'":{"x_min":0,"x_max":163,"ha":163,"o":"m 42 701 l 122 701 l 122 429 l 42 429 z"},"=":{"x_min":0,"x_max":833,"ha":833,"o":"m 124 238 l 709 238 l 709 157 l 124 157 z m 124 440 l 709 440 l 709 358 l 124 358 z"},"a":{"x_min":0,"x_max":492,"ha":492,"o":"m 314 247 q 311 247 304 248 q 284 250 271 250 q 204 250 171 226 q 138 203 138 155 q 138 118 158 98 q 179 77 215 77 q 266 77 290 110 q 314 143 314 214 z m 431 304 l 431 102 q 431 70 433 46 q 434 21 437 0 l 325 0 l 318 64 q 290 26 254 7 q 218 -11 173 -11 q 106 -11 65 32 q 24 75 24 146 q 24 231 86 275 q 147 320 265 320 q 280 320 291 320 q 303 319 314 319 l 314 341 q 314 387 288 412 q 261 437 212 437 q 175 437 143 425 q 110 413 82 388 l 74 485 q 115 504 156 514 q 197 524 237 524 q 344 524 388 476 q 431 429 431 304 z"},"L":{"x_min":0,"x_max":431,"ha":431,"o":"m 74 694 l 199 694 l 199 102 l 426 102 l 426 0 l 74 0 z"},"3":{"x_min":0,"x_max":510,"ha":510,"o":"m 296 363 q 363 353 401 310 q 439 267 439 199 q 439 104 374 47 q 310 -11 204 -11 q 158 -11 117 -4 q 76 3 40 17 l 47 121 q 83 104 116 96 q 149 88 184 88 q 245 88 278 118 q 310 149 310 206 q 310 260 276 286 q 243 312 172 312 q 162 312 151 312 q 140 311 127 310 l 127 406 q 135 405 143 405 q 152 405 169 405 q 237 405 272 431 q 307 457 307 508 q 307 558 280 583 q 252 609 199 609 q 166 609 133 600 q 100 590 66 571 l 57 672 q 101 689 141 697 q 182 705 221 705 q 317 705 374 656 q 431 606 431 522 q 431 461 396 420 q 360 378 296 363 z"},";":{"x_min":0,"x_max":278,"ha":278,"o":"m 92 131 l 207 131 l 134 -116 l 41 -116 z m 81 513 l 197 513 l 197 382 l 81 382 z"},"J":{"x_min":0,"x_max":344,"ha":344,"o":"m 146 694 l 272 694 l 272 222 q 272 97 231 44 q 189 -9 94 -9 q 71 -9 50 -6 q 29 -2 9 4 l 14 108 q 27 103 40 101 q 54 98 67 98 q 112 98 129 125 q 146 153 146 236 z"},"V":{"x_min":0,"x_max":558,"ha":558,"o":"m 5 694 l 138 694 l 278 144 l 430 694 l 553 694 l 342 0 l 209 0 z"},"\"":{"x_min":0,"x_max":314,"ha":314,"o":"m 193 701 l 273 701 l 273 429 l 193 429 z m 42 701 l 122 701 l 122 429 l 42 429 z"},"7":{"x_min":0,"x_max":510,"ha":510,"o":"m 52 694 l 438 694 l 438 581 l 236 0 l 103 0 l 322 598 l 52 598 z"},"S":{"x_min":0,"x_max":477,"ha":477,"o":"m 400 683 l 394 577 q 360 591 330 599 q 299 606 273 606 q 224 606 197 585 q 171 564 171 525 q 171 496 190 473 q 209 449 277 407 l 288 400 q 434 307 434 198 q 434 104 372 47 q 309 -11 208 -11 q 167 -11 126 -2 q 85 6 51 22 l 60 129 q 97 108 132 98 q 167 88 202 88 q 251 88 280 112 q 309 136 309 177 q 309 240 203 306 q 187 316 179 321 q 101 371 72 413 q 43 455 43 513 q 43 601 103 653 q 162 705 264 705 q 298 705 332 699 q 367 694 400 683 z"},"}":{"x_min":0,"x_max":500,"ha":500,"o":"m 74 721 l 96 721 q 152 721 184 716 q 215 710 237 697 q 265 681 276 650 q 287 620 287 550 l 287 429 q 287 359 312 330 q 338 302 400 302 q 403 302 410 302 q 417 303 421 303 l 421 216 q 417 216 410 216 q 403 217 400 217 q 338 217 313 188 q 287 159 287 89 l 287 -32 q 287 -102 276 -132 q 265 -162 237 -178 q 216 -191 184 -197 q 152 -202 96 -202 l 74 -202 l 74 -116 q 78 -116 85 -117 q 93 -117 96 -117 q 149 -117 168 -97 q 187 -76 187 -11 l 187 106 q 187 181 209 213 q 231 245 287 259 q 231 272 209 304 q 187 336 187 412 l 187 530 q 187 594 168 615 q 150 635 97 635 q 94 635 86 634 q 78 634 74 634 z"},"Z":{"x_min":0,"x_max":477,"ha":477,"o":"m 39 694 l 443 694 l 443 586 l 163 101 l 449 101 l 449 0 l 29 0 l 29 114 l 305 594 l 39 594 z"},"x":{"x_min":0,"x_max":444,"ha":444,"o":"m 11 513 l 144 513 l 226 342 l 310 513 l 436 513 l 295 272 l 447 0 l 312 0 l 214 202 l 120 0 l -3 0 l 149 276 z"},")":{"x_min":0,"x_max":285,"ha":285,"o":"m 9 755 l 98 755 q 167 636 202 525 q 237 415 237 311 q 237 208 202 97 q 167 -13 98 -132 l 9 -132 q 69 -19 98 90 q 127 199 127 311 q 127 423 98 532 q 69 642 9 755 z"},"&":{"x_min":0,"x_max":606,"ha":606,"o":"m 223 320 q 188 299 169 269 q 151 238 151 199 q 151 146 181 114 q 210 82 260 82 q 291 82 317 95 q 344 109 363 135 z m 312 375 l 429 222 q 445 249 454 289 q 463 330 463 380 l 463 388 l 566 388 l 566 366 q 566 304 548 246 q 530 187 496 140 l 602 0 l 464 0 l 421 64 q 384 27 340 9 q 295 -10 242 -10 q 146 -10 87 47 q 29 103 29 196 q 29 257 59 305 q 90 353 154 392 q 118 433 101 470 q 84 508 84 546 q 84 616 134 660 q 183 705 263 705 q 345 705 393 663 q 441 621 441 550 q 441 497 409 454 q 377 411 312 375 z m 254 437 q 295 459 317 489 q 338 518 338 553 q 338 587 318 607 q 299 626 264 626 q 233 626 213 606 q 193 587 193 556 q 193 529 209 499 q 225 468 254 437 z"},"_":{"x_min":0,"x_max":500,"ha":500,"o":"m 0 -152 l 500 -152 l 500 -236 l 0 -236 z"},"v":{"x_min":0,"x_max":476,"ha":476,"o":"m 11 513 l 139 513 l 241 114 l 345 513 l 465 513 l 308 0 l 164 0 z"},"O":{"x_min":0,"x_max":634,"ha":634,"o":"m 317 609 q 248 609 211 542 q 174 475 174 347 q 174 220 210 153 q 247 86 317 86 q 387 86 423 153 q 460 220 460 347 q 460 474 423 542 q 386 609 317 609 z m 317 705 q 448 705 521 611 q 593 518 593 347 q 593 177 521 83 q 448 -10 317 -10 q 186 -10 113 83 q 41 176 41 347 q 41 518 113 611 q 186 705 317 705 z"},"(":{"x_min":0,"x_max":285,"ha":285,"o":"m 187 755 l 276 755 q 216 645 188 535 q 159 426 159 311 q 159 196 188 88 q 216 -21 276 -132 l 187 -132 q 118 -14 83 96 q 49 207 49 311 q 49 415 83 526 q 118 637 187 755 z"},"C":{"x_min":0,"x_max":536,"ha":536,"o":"m 502 676 l 497 568 q 468 586 438 595 q 408 603 367 603 q 276 603 225 537 q 174 470 174 352 q 174 228 227 159 q 281 90 377 90 q 409 90 440 99 q 471 108 502 126 l 506 16 q 472 3 435 -3 q 398 -10 357 -10 q 214 -10 127 87 q 41 184 41 346 q 41 512 126 608 q 210 705 354 705 q 390 705 427 698 q 463 691 502 676 z"},"W":{"x_min":0,"x_max":841,"ha":841,"o":"m 21 694 l 141 694 l 245 136 l 347 694 l 497 694 l 601 137 l 705 694 l 817 694 l 676 0 l 528 0 l 418 581 l 313 0 l 165 0 z"},"A":{"x_min":0,"x_max":584,"ha":584,"o":"m 293 580 l 197 266 l 382 266 z m 224 694 l 368 694 l 586 0 l 455 0 l 409 168 l 167 168 l 119 0 l -4 0 z"},"f":{"x_min":0,"x_max":299,"ha":299,"o":"m 309 748 l 309 659 q 292 663 283 664 q 274 665 268 665 q 233 665 219 647 q 204 630 204 585 l 204 513 l 296 513 l 296 426 l 204 426 l 204 0 l 85 0 l 85 426 l -1 426 l -1 513 l 85 513 l 85 596 q 85 680 119 718 q 154 757 228 757 q 249 757 269 755 q 289 752 309 748 z"},"Q":{"x_min":0,"x_max":634,"ha":634,"o":"m 445 20 l 569 -133 l 432 -133 l 338 -10 l 323 -10 q 186 -10 114 82 q 41 174 41 347 q 41 518 113 611 q 186 705 317 705 q 448 705 521 611 q 593 518 593 347 q 593 222 556 141 q 519 59 445 20 z m 317 609 q 248 609 211 542 q 174 475 174 347 q 174 220 210 153 q 247 86 317 86 q 387 86 423 153 q 460 220 460 347 q 460 474 423 542 q 386 609 317 609 z"},"w":{"x_min":0,"x_max":755,"ha":755,"o":"m 17 513 l 140 513 l 223 109 l 312 513 l 446 513 l 534 109 l 620 513 l 737 513 l 599 0 l 469 0 l 376 406 l 284 0 l 150 0 z"},"-":{"x_min":0,"x_max":304,"ha":304,"o":"m 38 312 l 266 312 l 266 216 l 38 216 z"},"E":{"x_min":0,"x_max":491,"ha":491,"o":"m 74 694 l 432 694 l 432 598 l 199 598 l 199 404 l 419 404 l 419 308 l 199 308 l 199 96 l 443 96 l 443 0 l 74 0 z"},"s":{"x_min":0,"x_max":402,"ha":402,"o":"m 338 504 l 334 407 q 308 420 282 426 q 256 432 228 432 q 192 432 172 419 q 153 405 153 381 q 153 359 167 345 q 180 331 235 305 q 315 268 341 235 q 366 202 366 150 q 366 77 315 33 q 263 -11 177 -11 q 143 -11 108 -5 q 73 1 40 14 l 44 119 q 76 100 111 90 q 146 80 178 80 q 216 80 238 94 q 259 109 259 135 q 259 167 187 200 l 179 204 q 101 240 72 276 q 43 312 43 365 q 43 435 91 479 q 139 523 215 523 q 248 523 279 518 q 310 514 338 504 z"},">":{"x_min":0,"x_max":833,"ha":833,"o":"m 129 574 l 704 337 l 704 259 l 129 23 l 129 112 l 585 298 l 129 484 z"},"l":{"x_min":0,"x_max":248,"ha":248,"o":"m 64 748 l 184 748 l 184 0 l 64 0 z"},"8":{"x_min":0,"x_max":510,"ha":510,"o":"m 245 318 q 200 297 178 265 q 156 233 156 188 q 156 138 182 109 q 209 80 255 80 q 300 80 324 108 q 348 135 348 187 q 348 231 324 262 q 300 292 245 318 z m 335 369 q 404 341 437 295 q 470 250 470 182 q 470 95 411 42 q 353 -11 255 -11 q 159 -11 100 44 q 40 99 40 187 q 40 248 71 292 q 102 337 162 362 q 112 387 85 429 q 57 472 57 525 q 57 604 111 655 q 164 705 250 705 q 341 705 395 658 q 448 611 448 533 q 448 481 419 439 q 390 396 335 369 z m 262 403 q 299 426 318 457 q 337 488 337 526 q 337 566 314 591 q 292 616 255 616 q 214 616 191 592 q 167 567 167 525 q 167 486 190 456 q 214 425 262 403 z"},"\\":{"x_min":0,"x_max":270,"ha":270,"o":"m 3 699 l 85 699 l 296 -93 l 214 -93 z"},"e":{"x_min":0,"x_max":483,"ha":483,"o":"m 445 224 l 158 224 q 162 152 196 115 q 230 79 293 79 q 325 79 356 88 q 388 98 418 116 l 418 23 q 385 6 349 -2 q 314 -10 275 -10 q 161 -10 99 59 q 37 128 37 255 q 37 379 95 452 q 152 524 252 524 q 339 524 393 454 q 446 384 446 267 q 446 257 446 246 q 445 235 445 224 z m 333 297 l 333 306 q 333 371 312 404 q 291 438 250 438 q 207 438 184 403 q 161 369 156 297 z"},"b":{"x_min":0,"x_max":531,"ha":531,"o":"m 185 230 q 185 159 209 120 q 232 82 276 82 q 321 82 344 126 q 367 169 367 256 q 367 342 344 386 q 321 430 276 430 q 232 430 209 392 q 185 353 185 282 z m 66 748 l 185 748 l 185 444 q 208 485 240 505 q 271 524 314 524 q 402 524 448 456 q 494 388 494 257 q 494 127 448 58 q 401 -11 315 -11 q 270 -11 236 10 q 203 32 179 77 q 179 63 178 46 q 177 29 175 0 l 66 0 z"},"%":{"x_min":0,"x_max":788,"ha":788,"o":"m 615 313 q 586 313 572 282 q 558 250 558 188 q 558 124 572 91 q 586 59 615 59 q 643 59 657 90 q 671 122 671 186 q 671 250 657 281 q 643 313 615 313 z m 615 382 q 683 382 720 331 q 757 279 757 186 q 757 91 719 41 q 682 -10 612 -10 q 547 -10 510 42 q 472 94 472 185 q 472 278 510 330 q 548 382 615 382 z m 173 636 q 145 636 131 605 q 117 574 117 511 q 117 446 131 413 q 145 381 173 381 q 202 381 216 413 q 230 445 230 509 q 230 572 216 604 q 201 636 173 636 z m 500 705 l 576 705 l 288 -10 l 212 -10 z m 173 705 q 241 705 279 654 q 316 603 316 509 q 316 416 279 364 q 242 312 175 312 q 107 312 69 363 q 31 415 31 507 q 31 601 68 653 q 105 705 173 705 z"},"m":{"x_min":0,"x_max":774,"ha":774,"o":"m 437 441 q 459 482 494 503 q 528 524 576 524 q 642 524 677 480 q 713 436 713 354 l 713 0 l 594 0 l 594 330 q 594 377 578 400 q 562 422 528 422 q 491 422 470 389 q 449 357 449 299 l 449 0 l 330 0 l 330 330 q 330 377 314 400 q 298 422 264 422 q 227 422 206 389 q 185 357 185 299 l 185 0 l 66 0 l 66 394 q 66 429 65 458 q 63 486 61 513 l 170 513 q 170 506 172 492 q 175 456 175 437 q 192 477 228 500 q 264 524 307 524 q 354 524 387 503 q 420 481 437 441 z"},"#":{"x_min":0,"x_max":769,"ha":769,"o":"m 346 416 l 302 292 l 427 292 l 471 416 z m 359 713 l 452 713 l 377 500 l 499 500 l 575 713 l 668 713 l 593 500 l 735 500 l 706 416 l 563 416 l 519 293 l 670 293 l 640 209 l 490 209 l 414 -3 l 321 -3 l 397 209 l 274 209 l 197 -3 l 104 -3 l 180 209 l 34 209 l 64 293 l 209 293 l 253 416 l 99 416 l 129 500 l 283 500 z"},",":{"x_min":0,"x_max":255,"ha":255,"o":"m 78 131 l 194 131 l 121 -116 l 27 -116 z"},"n":{"x_min":0,"x_max":519,"ha":519,"o":"m 459 354 l 459 0 l 339 0 l 339 330 q 339 378 322 400 q 305 422 269 422 q 231 422 208 390 q 186 357 186 302 l 186 299 l 186 0 l 66 0 l 66 394 q 66 429 65 458 q 63 486 61 513 l 170 513 q 170 506 172 492 q 175 456 175 437 q 193 478 231 501 q 268 524 315 524 q 385 524 422 480 q 459 437 459 354 z"},"h":{"x_min":0,"x_max":519,"ha":519,"o":"m 66 748 l 186 748 l 186 455 q 209 490 242 507 q 274 524 319 524 q 386 524 422 480 q 459 436 459 354 l 459 0 l 339 0 l 339 330 q 339 378 322 400 q 305 422 269 422 q 231 422 208 390 q 186 357 186 302 l 186 299 l 186 0 l 66 0 z"},"z":{"x_min":0,"x_max":403,"ha":403,"o":"m 34 513 l 368 513 l 368 407 l 155 93 l 369 93 l 369 0 l 29 0 l 29 109 l 240 420 l 34 420 z"},"B":{"x_min":0,"x_max":529,"ha":529,"o":"m 194 312 l 194 96 l 244 96 q 310 96 340 122 q 370 147 370 203 q 370 261 341 286 q 311 312 244 312 z m 194 598 l 194 402 l 242 402 q 301 402 328 426 q 356 450 356 501 q 356 552 327 575 q 299 598 234 598 z m 74 694 l 258 694 q 369 694 424 650 q 478 606 478 518 q 478 455 446 415 q 414 374 355 362 q 425 349 459 307 q 493 265 493 193 q 493 94 432 47 q 372 0 244 0 l 74 0 z"},"K":{"x_min":0,"x_max":537,"ha":537,"o":"m 74 694 l 199 694 l 199 402 l 399 694 l 540 694 l 309 370 l 561 0 l 411 0 l 199 327 l 199 0 l 74 0 z"},"R":{"x_min":0,"x_max":536,"ha":536,"o":"m 197 598 l 197 393 l 232 393 q 306 393 336 418 q 365 443 365 503 q 365 555 337 576 q 308 598 235 598 z m 74 694 l 216 694 q 370 694 429 651 q 489 609 489 509 q 489 444 455 402 q 421 361 355 346 q 388 340 407 320 q 426 299 445 241 l 526 0 l 395 0 l 331 208 q 314 264 295 280 q 275 297 235 297 l 197 297 l 197 0 l 74 0 z"},"T":{"x_min":0,"x_max":471,"ha":471,"o":"m 18 694 l 453 694 l 453 594 l 298 594 l 298 0 l 172 0 l 172 594 l 18 594 z"},"P":{"x_min":0,"x_max":508,"ha":508,"o":"m 199 598 l 199 368 l 247 368 q 308 368 334 395 q 360 422 360 486 q 360 547 333 573 q 306 598 239 598 z m 74 694 l 232 694 q 362 694 423 643 q 484 592 484 484 q 484 376 423 324 q 363 272 237 272 l 199 272 l 199 0 l 74 0 z"},"|":{"x_min":0,"x_max":500,"ha":500,"o":"m 207 764 l 294 764 l 294 -236 l 207 -236 z"},"t":{"x_min":0,"x_max":320,"ha":320,"o":"m 200 654 l 200 513 l 300 513 l 300 426 l 200 426 l 200 177 q 200 120 213 102 q 225 84 258 84 q 269 84 280 86 q 292 88 305 92 l 305 3 q 282 -2 261 -5 q 240 -8 220 -8 q 143 -8 112 29 q 81 65 81 176 l 81 426 l -1 426 l -1 513 l 81 513 l 81 618 z"},"M":{"x_min":0,"x_max":805,"ha":805,"o":"m 74 694 l 252 694 l 401 184 l 552 694 l 733 694 l 733 0 l 620 0 l 620 596 l 441 0 l 360 0 l 181 595 l 181 0 l 74 0 z"},"g":{"x_min":0,"x_max":531,"ha":531,"o":"m 347 288 q 347 356 323 394 q 298 431 255 431 q 210 431 187 389 q 164 347 164 265 q 164 181 187 137 q 210 94 254 94 q 298 94 323 132 q 347 169 347 237 z m 352 436 q 352 461 356 510 l 356 513 l 471 513 q 470 496 469 467 q 466 392 466 380 l 466 76 q 466 -31 452 -78 q 439 -125 406 -159 q 376 -190 331 -206 q 286 -222 227 -222 q 179 -222 137 -215 q 96 -208 58 -194 l 66 -91 q 100 -110 136 -120 q 172 -130 211 -130 q 283 -130 316 -89 q 348 -48 348 45 q 348 58 348 64 q 348 71 347 77 q 323 37 292 19 q 261 0 217 0 q 128 0 83 66 q 38 133 38 263 q 38 387 85 456 q 131 524 216 524 q 261 524 294 503 q 327 481 352 436 z"},"j":{"x_min":0,"x_max":248,"ha":248,"o":"m 65 513 l 184 513 l 184 -25 q 184 -132 151 -177 q 119 -222 44 -222 q 28 -222 12 -220 q -3 -217 -19 -213 l -16 -125 q -8 -127 -1 -128 q 6 -129 13 -129 q 42 -129 53 -109 q 64 -89 65 -6 z m 62 728 l 187 728 l 187 611 l 62 611 z"},"i":{"x_min":0,"x_max":248,"ha":248,"o":"m 65 513 l 184 513 l 184 0 l 65 0 z m 62 728 l 187 728 l 187 611 l 62 611 z"},"y":{"x_min":0,"x_max":466,"ha":466,"o":"m 11 513 l 139 513 l 242 118 l 342 513 l 458 513 l 289 -48 q 257 -153 221 -188 q 185 -222 121 -222 q 102 -222 83 -220 q 65 -217 48 -212 l 56 -119 q 67 -122 76 -124 q 86 -125 94 -125 q 124 -125 142 -109 q 160 -92 170 -55 l 181 -17 z"},"@":{"x_min":0,"x_max":1000,"ha":1000,"o":"m 573 138 q 546 96 511 76 q 475 56 425 56 q 351 56 311 98 q 272 141 272 220 q 272 334 339 413 q 407 492 502 492 q 545 492 575 475 q 604 458 623 423 l 650 475 l 725 475 l 653 189 q 652 187 652 183 q 649 169 649 165 q 649 146 662 135 q 675 124 696 124 q 721 124 748 139 q 776 154 800 180 q 835 217 854 267 q 872 316 872 372 q 872 496 781 573 q 689 650 542 650 q 475 650 417 635 q 359 620 312 589 q 224 534 176 447 q 128 360 128 254 q 128 102 230 10 q 333 -81 503 -81 q 584 -81 661 -57 q 738 -33 803 12 l 836 -36 q 763 -91 680 -119 q 598 -147 507 -147 q 413 -147 335 -124 q 258 -100 198 -54 q 123 3 85 80 q 48 157 48 255 q 48 335 73 408 q 99 480 148 541 q 220 628 321 674 q 421 719 545 719 q 626 719 699 697 q 771 675 823 635 q 888 585 920 520 q 952 455 952 373 q 952 294 920 226 q 889 157 830 110 q 796 83 757 69 q 717 55 675 55 q 623 55 598 75 q 573 95 573 136 z m 602 345 q 595 386 572 409 q 549 431 512 431 q 450 431 406 368 q 362 306 362 217 q 362 169 384 143 q 406 117 447 117 q 491 117 527 150 q 562 182 575 234 z"},".":{"x_min":0,"x_max":255,"ha":255,"o":"m 69 131 l 186 131 l 186 0 l 69 0 z"},"p":{"x_min":0,"x_max":531,"ha":531,"o":"m 185 69 l 185 -220 l 66 -220 l 66 380 q 66 388 63 451 q 62 489 61 513 l 175 513 q 177 486 178 468 q 179 451 179 436 q 204 481 237 503 q 270 524 315 524 q 402 524 448 456 q 494 387 494 257 q 494 126 448 57 q 402 -11 314 -11 q 270 -11 239 8 q 208 27 185 69 z m 185 231 q 185 160 209 121 q 232 83 276 83 q 321 83 344 127 q 367 170 367 257 q 367 343 344 387 q 321 431 276 431 q 232 431 209 393 q 185 355 185 284 z"},"X":{"x_min":0,"x_max":556,"ha":556,"o":"m 25 694 l 167 694 l 285 456 l 406 694 l 539 694 l 355 366 l 551 0 l 411 0 l 277 269 l 137 0 l 3 0 l 206 364 z"},"*":{"x_min":0,"x_max":381,"ha":381,"o":"m 144 745 l 236 745 l 220 616 l 338 672 l 366 584 l 238 559 l 327 464 l 253 411 l 190 525 l 128 411 l 53 464 l 143 559 l 14 584 l 42 672 l 160 616 z"},"Y":{"x_min":0,"x_max":498,"ha":498,"o":"m -21 694 l 123 694 l 254 388 l 385 694 l 519 694 l 314 276 l 314 0 l 188 0 l 188 280 z"},"c":{"x_min":0,"x_max":404,"ha":404,"o":"m 386 502 l 380 405 q 360 416 337 422 q 314 428 292 428 q 230 428 197 386 q 164 343 164 264 q 164 178 198 132 q 231 86 294 86 q 318 86 342 92 q 366 99 388 111 l 393 13 q 362 1 330 -4 q 298 -10 263 -10 q 160 -10 99 62 q 38 133 38 254 q 38 382 100 453 q 163 524 274 524 q 300 524 328 518 q 356 513 386 502 z"},"!":{"x_min":0,"x_max":305,"ha":305,"o":"m 97 124 l 212 124 l 212 0 l 97 0 z m 91 694 l 218 694 l 199 200 l 110 200 z"},"/":{"x_min":0,"x_max":270,"ha":270,"o":"m 185 699 l 268 699 l 56 -93 l -26 -93 z"},"[":{"x_min":0,"x_max":285,"ha":285,"o":"m 81 755 l 258 755 l 258 675 l 176 675 l 176 -53 l 258 -53 l 258 -132 l 81 -132 z"},"6":{"x_min":0,"x_max":510,"ha":510,"o":"m 262 350 q 218 350 196 316 q 173 282 173 216 q 173 150 196 115 q 218 81 262 81 q 305 81 328 115 q 350 148 350 213 q 350 281 328 315 q 306 350 262 350 z m 439 682 l 431 581 q 407 596 380 603 q 352 611 324 611 q 250 611 211 555 q 172 499 168 385 q 190 413 221 428 q 253 443 289 443 q 370 443 419 384 q 469 324 469 227 q 469 120 414 55 q 359 -10 268 -10 q 158 -10 104 72 q 49 154 49 320 q 49 511 115 608 q 180 705 309 705 q 341 705 373 699 q 405 694 439 682 z"},"r":{"x_min":0,"x_max":327,"ha":327,"o":"m 325 522 l 325 409 q 323 409 312 411 q 301 412 295 412 q 239 412 212 376 q 185 341 185 268 l 185 0 l 66 0 l 66 394 q 66 429 65 458 q 63 486 61 513 l 170 513 l 170 510 q 174 463 174 440 l 174 425 q 194 474 228 498 q 262 523 310 523 q 310 523 311 523 q 318 522 325 522 z"},"2":{"x_min":0,"x_max":510,"ha":510,"o":"m 179 98 l 436 98 l 436 0 l 46 0 l 46 103 q 184 249 243 340 q 302 432 302 499 q 302 546 275 575 q 248 603 202 603 q 170 603 137 591 q 104 579 70 555 l 59 662 q 95 683 138 694 q 181 705 223 705 q 312 705 367 653 q 422 601 422 516 q 422 431 364 331 q 306 230 179 98 z"},"{":{"x_min":0,"x_max":500,"ha":500,"o":"m 427 721 l 427 634 q 423 634 415 634 q 407 635 404 635 q 351 635 332 615 q 313 594 313 530 l 313 412 q 313 336 292 304 q 270 272 214 259 q 270 246 291 214 q 313 182 313 106 l 313 -11 q 313 -76 332 -96 q 352 -117 405 -117 q 408 -117 416 -117 q 423 -116 427 -116 l 427 -202 l 396 -202 q 346 -202 315 -196 q 284 -190 263 -178 q 235 -162 224 -131 q 213 -101 213 -32 l 213 89 q 213 159 187 188 q 162 217 100 217 q 97 217 90 216 q 83 216 79 216 l 79 303 q 83 303 90 302 q 97 302 100 302 q 162 302 187 331 q 213 359 213 429 l 213 550 q 213 621 224 651 q 235 681 263 697 q 285 710 316 716 q 348 721 405 721 z"},"9":{"x_min":0,"x_max":510,"ha":510,"o":"m 68 12 l 76 114 q 99 100 127 92 q 155 84 183 84 q 257 84 296 139 q 334 195 339 309 q 317 281 286 266 q 254 251 219 251 q 139 251 88 311 q 38 371 38 467 q 38 575 93 639 q 148 704 239 704 q 349 704 404 622 q 458 540 458 375 q 458 184 393 87 q 327 -10 198 -10 q 165 -10 133 -4 q 101 1 68 12 z m 245 613 q 202 613 179 579 q 156 545 156 481 q 156 414 178 380 q 201 345 244 345 q 289 345 311 379 q 334 412 334 477 q 334 545 312 579 q 290 613 245 613 z"}," ":{"x_min":0,"x_max":255,"ha":255,"o":""},"I":{"x_min":0,"x_max":272,"ha":272,"o":"m 74 694 l 199 694 l 199 0 l 74 0 z"},"H":{"x_min":0,"x_max":600,"ha":600,"o":"m 74 694 l 199 694 l 199 410 l 401 410 l 401 694 l 526 694 l 526 0 l 401 0 l 401 307 l 199 307 l 199 0 l 74 0 z"},"4":{"x_min":0,"x_max":510,"ha":510,"o":"m 294 565 l 121 238 l 294 238 z m 269 694 l 406 694 l 406 238 l 481 238 l 481 147 l 406 147 l 406 0 l 291 0 l 291 147 l 30 147 l 30 257 z"},"~":{"x_min":0,"x_max":833,"ha":833,"o":"m 747 383 l 747 293 q 697 258 651 241 q 604 224 561 224 q 540 224 516 228 q 492 232 468 241 q 456 245 431 254 q 327 290 275 290 q 235 290 190 271 q 145 253 87 212 l 87 303 q 139 338 186 356 q 232 373 276 373 q 306 373 337 367 q 368 361 419 344 q 426 342 440 336 q 520 308 562 308 q 604 308 648 326 q 693 344 747 383 z"},"D":{"x_min":0,"x_max":625,"ha":625,"o":"m 199 598 l 199 96 l 223 96 q 330 96 388 161 q 446 227 446 347 q 446 475 392 536 q 339 598 228 598 z m 74 694 l 222 694 q 404 694 492 609 q 579 524 579 347 q 579 178 487 89 q 396 0 222 0 l 74 0 z"},"^":{"x_min":0,"x_max":1000,"ha":1000,"o":"m 447 713 l 553 713 l 795 439 l 694 439 l 500 633 l 305 439 l 204 439 z"},"0":{"x_min":0,"x_max":510,"ha":510,"o":"m 255 609 q 206 609 183 545 q 160 481 160 347 q 160 213 183 150 q 207 86 255 86 q 304 86 327 150 q 350 213 350 347 q 350 481 327 545 q 303 609 255 609 z m 255 705 q 360 705 416 613 q 471 521 471 347 q 471 174 415 82 q 359 -10 255 -10 q 150 -10 94 82 q 39 173 39 347 q 39 521 94 613 q 150 705 255 705 z"},"F":{"x_min":0,"x_max":449,"ha":449,"o":"m 74 694 l 418 694 l 418 598 l 199 598 l 199 399 l 409 399 l 409 303 l 199 303 l 199 0 l 74 0 z"},"`":{"x_min":0,"x_max":500,"ha":500,"o":"m 117 754 l 226 754 l 324 578 l 263 578 z"},"k":{"x_min":0,"x_max":460,"ha":460,"o":"m 64 748 l 183 748 l 183 307 l 336 513 l 462 513 l 287 282 l 477 0 l 343 0 l 183 249 l 183 0 l 64 0 z"},"u":{"x_min":0,"x_max":519,"ha":519,"o":"m 61 513 l 181 513 l 181 183 q 181 137 198 114 q 214 91 248 91 q 289 91 311 124 q 334 156 334 215 l 334 513 l 454 513 l 454 119 q 454 72 455 47 q 456 22 458 0 l 349 0 q 347 19 346 38 q 345 57 345 76 q 326 35 289 12 q 252 -11 205 -11 q 135 -11 98 32 q 61 76 61 159 z"},"]":{"x_min":0,"x_max":285,"ha":285,"o":"m 27 755 l 204 755 l 204 -132 l 27 -132 l 27 -53 l 109 -53 l 109 675 l 27 675 z"},"U":{"x_min":0,"x_max":606,"ha":606,"o":"m 70 694 l 195 694 l 195 248 q 195 160 221 123 q 247 86 306 86 q 366 86 391 123 q 417 159 417 248 l 417 694 l 536 694 l 536 262 q 536 123 479 56 q 422 -10 303 -10 q 184 -10 127 56 q 70 123 70 262 z"},"o":{"x_min":0,"x_max":519,"ha":519,"o":"m 260 434 q 214 434 189 388 q 164 342 164 256 q 164 171 189 125 q 214 80 260 80 q 307 80 331 125 q 355 169 355 256 q 355 342 330 388 q 306 434 260 434 z m 259 524 q 366 524 423 455 q 481 386 481 257 q 481 128 423 59 q 366 -10 259 -10 q 153 -10 96 60 q 38 129 38 257 q 38 385 95 455 q 153 524 259 524 z"},"N":{"x_min":0,"x_max":638,"ha":638,"o":"m 74 694 l 219 694 l 456 156 l 456 694 l 565 694 l 565 0 l 418 0 l 183 536 l 183 0 l 74 0 z"},"+":{"x_min":0,"x_max":833,"ha":833,"o":"m 375 596 l 458 596 l 458 339 l 709 339 l 709 258 l 458 258 l 458 0 l 375 0 l 375 258 l 124 258 l 124 339 l 375 339 z"},"G":{"x_min":0,"x_max":616,"ha":616,"o":"m 540 677 l 533 571 q 499 591 463 600 q 426 609 383 609 q 283 609 229 540 q 174 471 174 344 q 174 222 224 154 q 274 86 364 86 q 388 86 406 89 q 425 93 442 100 l 442 293 l 341 293 l 341 389 l 561 389 l 561 27 q 521 9 472 0 q 423 -10 366 -10 q 211 -10 126 82 q 41 173 41 341 q 41 512 130 609 q 220 705 378 705 q 421 705 461 698 q 502 691 540 677 z"},"q":{"x_min":0,"x_max":531,"ha":531,"o":"m 347 284 q 347 354 323 393 q 299 431 255 431 q 210 431 187 387 q 164 343 164 257 q 164 171 187 127 q 210 83 256 83 q 298 83 323 122 q 347 161 347 231 z m 352 436 q 352 454 353 471 q 354 489 356 513 l 471 513 l 471 502 q 466 399 466 380 l 466 -218 l 347 -218 l 347 69 q 323 27 292 8 q 260 -11 217 -11 q 129 -11 84 57 q 38 125 38 257 q 38 387 84 456 q 129 524 216 524 q 261 524 293 503 q 326 482 352 436 z"},"d":{"x_min":0,"x_max":531,"ha":531,"o":"m 347 282 q 347 353 323 391 q 298 430 255 430 q 210 430 187 386 q 164 342 164 256 q 164 169 187 126 q 209 82 255 82 q 298 82 323 121 q 347 160 347 230 z m 347 748 l 466 748 l 466 0 l 356 0 q 354 27 353 44 q 352 61 352 77 q 327 31 294 10 q 261 -11 216 -11 q 130 -11 84 58 q 38 126 38 255 q 38 387 84 456 q 129 524 217 524 q 260 524 292 505 q 323 485 347 444 z"},"1":{"x_min":0,"x_max":510,"ha":510,"o":"m 237 694 l 332 694 l 332 0 l 218 0 l 218 551 l 128 461 l 70 547 z"},"5":{"x_min":0,"x_max":510,"ha":510,"o":"m 74 694 l 420 694 l 420 601 l 182 601 l 182 439 q 203 443 217 444 q 232 446 245 446 q 341 446 396 388 q 452 330 452 231 q 452 122 386 56 q 320 -10 211 -10 q 172 -10 135 -3 q 97 4 62 17 l 69 123 q 96 106 127 98 q 159 89 194 89 q 258 89 293 123 q 328 157 328 220 q 328 287 292 322 q 257 357 189 357 q 160 357 131 352 q 102 346 74 336 z"}}}
